<?xml version="1.0" encoding="UTF-8"?>
<svg width="104px" height="32px" viewBox="0 0 104 32" version="1.1" xmlns="http://www.w3.org/2000/svg" xmlns:xlink="http://www.w3.org/1999/xlink">
    <!-- Generator: Sketch 48.2 (47327) - http://www.bohemiancoding.com/sketch -->
    <title>Airbnb_Logo_Bélo</title>
    <desc>Created with Sketch.</desc>
    <defs></defs>
    <g id="Home" stroke="none" stroke-width="1" fill="none" fill-rule="evenodd" transform="translate(-195.000000, -149.000000)" opacity="0.149796196">
        <g id="Airbnb_Logo_Bélo" transform="translate(195.000000, 149.000000)" fill="#FF5A5F" fill-rule="nonzero">
            <path d="M54.8116523,8.04004004 C54.8116523,9.19319319 53.8694713,10.1221221 52.6998672,10.1221221 C51.5302632,10.1221221 50.5880822,9.19319319 50.5880822,8.04004004 C50.5880822,6.88688689 51.4977742,5.95795796 52.6998672,5.95795796 C53.9019603,5.98998999 54.8116523,6.91891892 54.8116523,8.04004004 Z M46.1046,12.2362362 C46.1046,12.4284284 46.1046,12.7487487 46.1046,12.7487487 C46.1046,12.7487487 45.097441,11.4674675 42.9531669,11.4674675 C39.4118658,11.4674675 36.6503007,14.1261261 36.6503007,17.8098098 C36.6503007,21.4614615 39.3793768,24.1521522 42.9531669,24.1521522 C45.12993,24.1521522 46.1046,22.8388388 46.1046,22.8388388 L46.1046,23.3833834 C46.1046,23.6396396 46.299534,23.8318318 46.559446,23.8318318 L49.1910551,23.8318318 L49.1910551,11.7877878 C49.1910551,11.7877878 46.786869,11.7877878 46.559446,11.7877878 C46.299534,11.7877878 46.1046,12.012012 46.1046,12.2362362 Z M46.1046,19.955956 C45.617265,20.6606607 44.642595,21.2692693 43.4729909,21.2692693 C41.3936948,21.2692693 39.8017338,19.987988 39.8017338,17.8098098 C39.8017338,15.6316316 41.3936948,14.3503504 43.4729909,14.3503504 C44.610106,14.3503504 45.649754,14.990991 46.1046,15.6636637 L46.1046,19.955956 Z M51.1403952,11.7877878 L54.2593393,11.7877878 L54.2593393,23.8318318 L51.1403952,23.8318318 L51.1403952,11.7877878 Z M97.7296228,11.4674675 C95.5853487,11.4674675 94.5781897,12.7487487 94.5781897,12.7487487 L94.5781897,5.98998999 L91.4592456,5.98998999 L91.4592456,23.8318318 C91.4592456,23.8318318 93.8634317,23.8318318 94.0908547,23.8318318 C94.3507667,23.8318318 94.5457007,23.6076076 94.5457007,23.3833834 L94.5457007,22.8388388 C94.5457007,22.8388388 95.5528597,24.1521522 97.6971338,24.1521522 C101.238435,24.1521522 104,21.4614615 104,17.8098098 C104,14.1581582 101.238435,11.4674675 97.7296228,11.4674675 Z M97.2097988,21.2372372 C96.0077057,21.2372372 95.0655247,20.6286286 94.5781897,19.9239239 L94.5781897,15.6316316 C95.0655247,14.990991 96.1051727,14.3183183 97.2097988,14.3183183 C99.2890948,14.3183183 100.881056,15.5995996 100.881056,17.7777778 C100.881056,19.955956 99.2890948,21.2372372 97.2097988,21.2372372 Z M89.8347955,16.6886887 L89.8347955,23.8638639 L86.7158514,23.8638639 L86.7158514,17.041041 C86.7158514,15.0550551 86.0660714,14.2542543 84.3116653,14.2542543 C83.3694843,14.2542543 82.3948143,14.7347347 81.7775232,15.4394394 L81.7775232,23.8318318 L78.6585791,23.8318318 L78.6585791,11.7877878 L81.1277432,11.7877878 C81.3876552,11.7877878 81.5825892,12.012012 81.5825892,12.2362362 L81.5825892,12.7487487 C82.4922813,11.8198198 83.6943743,11.4674675 84.8964673,11.4674675 C86.2610054,11.4674675 87.3981204,11.8518519 88.3078125,12.6206206 C89.4124385,13.5175175 89.8347955,14.6706707 89.8347955,16.6886887 Z M71.0886419,11.4674675 C68.9443678,11.4674675 67.9372088,12.7487487 67.9372088,12.7487487 L67.9372088,5.98998999 L64.8182646,5.98998999 L64.8182646,23.8318318 C64.8182646,23.8318318 67.2224507,23.8318318 67.4498737,23.8318318 C67.7097857,23.8318318 67.9047198,23.6076076 67.9047198,23.3833834 L67.9047198,22.8388388 C67.9047198,22.8388388 68.9118788,24.1521522 71.0561529,24.1521522 C74.597454,24.1521522 77.3590191,21.4614615 77.3590191,17.8098098 C77.3915081,14.1581582 74.629943,11.4674675 71.0886419,11.4674675 Z M70.5688178,21.2372372 C69.3667248,21.2372372 68.4245438,20.6286286 67.9372088,19.9239239 L67.9372088,15.6316316 C68.4245438,14.990991 69.4641918,14.3183183 70.5688178,14.3183183 C72.6481139,14.3183183 74.240075,15.5995996 74.240075,17.7777778 C74.240075,19.955956 72.6481139,21.2372372 70.5688178,21.2372372 Z M62.1216776,11.4674675 C63.0638586,11.4674675 63.5511936,11.6276276 63.5511936,11.6276276 L63.5511936,14.4784785 C63.5511936,14.4784785 60.9520735,13.6136136 59.3276235,15.4394394 L59.3276235,23.8638639 L56.2086794,23.8638639 L56.2086794,11.7877878 C56.2086794,11.7877878 58.6128654,11.7877878 58.8402884,11.7877878 C59.1002005,11.7877878 59.2951345,12.012012 59.2951345,12.2362362 L59.2951345,12.7487487 C59.8799365,12.0760761 61.1470075,11.4674675 62.1216776,11.4674675 Z M29.7301434,22.7427427 C29.5676984,22.3583584 29.4052534,21.9419419 29.2428084,21.5895896 C28.9828964,21.013013 28.7229844,20.4684685 28.4955614,19.955956 L28.4630724,19.9239239 C26.2213313,15.1191191 23.8171452,10.2502503 21.2830031,5.44544545 L21.1855361,5.25325325 C20.9256241,4.77277277 20.6657121,4.26026026 20.4058001,3.74774775 C20.0809101,3.17117117 19.7560201,2.56256256 19.2361961,1.98598599 C18.196548,0.704704705 16.702054,0 15.1100929,0 C13.4856429,0 12.0236378,0.704704705 10.9515008,1.92192192 C10.4641658,2.4984985 10.1067868,3.10710711 9.78189675,3.68368368 C9.52198474,4.1961962 9.26207274,4.70870871 9.00216073,5.18918919 L8.90469372,5.38138138 C6.40304064,10.1861862 3.96636555,15.0550551 1.72462448,19.8598599 L1.69213547,19.9239239 C1.46471247,20.4364364 1.20480046,20.980981 0.944888449,21.5575576 C0.782443444,21.9099099 0.619998438,22.2942943 0.457553432,22.7107107 C0.0351964179,23.8958959 -0.0947595866,25.017017 0.067685419,26.1701702 C0.425064431,28.5725726 2.04951449,30.5905906 4.29125556,31.4874875 C5.13596959,31.8398398 6.01317262,32 6.92286466,32 C7.18277666,32 7.50766668,31.967968 7.76757868,31.9359359 C8.83971572,31.8078078 9.94434176,31.4554555 11.0164788,30.8468468 C12.3485278,30.1101101 13.6155989,29.0530531 15.0451149,27.5155155 C16.474631,29.0530531 17.774191,30.1101101 19.0737511,30.8468468 C20.1458881,31.4554555 21.2505141,31.8078078 22.3226512,31.9359359 C22.5825632,31.967968 22.9074532,32 23.1673652,32 C24.0770572,32 24.9867493,31.8398398 25.7989743,31.4874875 C28.0732044,30.5905906 29.6651654,28.5405405 30.0225445,26.1701702 C30.2824565,25.049049 30.1525005,23.9279279 29.7301434,22.7427427 Z M15.0776039,24.4084084 C13.3231979,22.2302302 12.1860828,20.1801802 11.7962148,18.4504505 C11.6337698,17.7137137 11.6012808,17.0730731 11.6987478,16.4964965 C11.7637258,15.983984 11.9586598,15.5355355 12.2185718,15.1511512 C12.8358629,14.2862863 13.8755109,13.7417417 15.0776039,13.7417417 C16.279697,13.7417417 17.351834,14.2542543 17.936636,15.1511512 C18.196548,15.5355355 18.3914821,15.983984 18.4564601,16.4964965 C18.5539271,17.0730731 18.5214381,17.7457457 18.358993,18.4504505 C17.969125,20.1481481 16.83201,22.1981982 15.0776039,24.4084084 Z M28.0407154,25.9139139 C27.8132924,27.5795796 26.6761773,29.021021 25.0842163,29.6616617 C24.3044803,29.981982 23.4597662,30.0780781 22.6150522,29.981982 C21.8028272,29.8858859 20.9906021,29.6296296 20.1458881,29.1491491 C18.9762841,28.5085085 17.80668,27.5155155 16.442142,26.042042 C18.5864161,23.4474474 19.8859761,21.0770771 20.3733111,18.962963 C20.6007341,17.96997 20.6332231,17.0730731 20.5357561,16.2402402 C20.4058001,15.4394394 20.1133991,14.7027027 19.6585531,14.0620621 C18.6513941,12.6206206 16.961966,11.7877878 15.0776039,11.7877878 C13.1932419,11.7877878 11.5038138,12.6526527 10.4966548,14.0620621 C10.0418088,14.7027027 9.74940775,15.4394394 9.61945175,16.2402402 C9.48949574,17.0730731 9.52198474,18.002002 9.78189675,18.962963 C10.2692318,21.0770771 11.6012808,23.4794795 13.7130659,26.0740741 C12.3810168,27.5475475 11.1789238,28.5405405 10.0093198,29.1811812 C9.16460573,29.6616617 8.3523807,29.9179179 7.54015568,30.014014 C6.66295265,30.1101101 5.81823862,29.981982 5.07099159,29.6936937 C3.47903054,29.0530531 2.3419155,27.6116116 2.11449249,25.9459459 C2.01702549,25.1451451 2.08200349,24.3443443 2.4068935,23.4474474 C2.5043605,23.1271271 2.66680551,22.8068068 2.82925051,22.4224224 C3.05667352,21.9099099 3.31658553,21.3653654 3.57649754,20.8208208 L3.60898654,20.7567568 C5.85072762,15.983984 8.2549137,11.1151151 10.7565668,6.37437437 L10.8540338,6.18218218 C11.1139458,5.7017017 11.3738578,5.18918919 11.6337698,4.70870871 C11.8936818,4.1961962 12.1860828,3.71571572 12.5434618,3.2992993 C13.2257309,2.53053053 14.1354229,2.11411411 15.1425819,2.11411411 C16.149741,2.11411411 17.059433,2.53053053 17.741702,3.2992993 C18.099081,3.71571572 18.3914821,4.1961962 18.6513941,4.70870871 C18.9113061,5.18918919 19.1712181,5.7017017 19.4311301,6.18218218 L19.5285971,6.37437437 C21.9977612,11.1471471 24.4019473,16.016016 26.6436883,20.7887888 L26.6436883,20.8208208 C26.9036003,21.3333333 27.1310234,21.9099099 27.3909354,22.4224224 C27.5533804,22.8068068 27.7158254,23.1271271 27.8132924,23.4474474 C28.0732044,24.2802803 28.1706714,25.0810811 28.0407154,25.9139139 Z" id="Shape"></path>
        </g>
    </g>
</svg>