<?xml version="1.0" encoding="UTF-8"?>
<svg width="112px" height="28px" viewBox="0 0 112 28" version="1.1" xmlns="http://www.w3.org/2000/svg" xmlns:xlink="http://www.w3.org/1999/xlink">
    <!-- Generator: Sketch 48.2 (47327) - http://www.bohemiancoding.com/sketch -->
    <title>Aliexpress_logo</title>
    <desc>Created with Sketch.</desc>
    <defs></defs>
    <g id="Home" stroke="none" stroke-width="1" fill="none" fill-rule="evenodd" transform="translate(-348.000000, -151.000000)" opacity="0.149796196">
        <g id="Aliexpress_logo" transform="translate(348.000000, 151.000000)" fill-rule="nonzero">
            <g id="g32" transform="translate(27.584051, 2.366136)" fill="#E43225">
                <polygon id="path12" points="0.257259547 18.150441 0.257259547 0.161098589 10.4447376 0.161098589 10.4447376 2.41647884 2.36678783 2.41647884 2.36678783 7.94753039 9.62150706 7.94753039 9.62150706 10.2029106 2.36678783 10.2029106 2.36678783 15.8413613 11.0107086 15.8413613 11.0107086 18.0967415 0.257259547 18.0967415"></polygon>
                <polygon id="path14" points="21.7127058 18.150441 18.2139759 13.3711829 14.7152461 18.150441 12.2455544 18.150441 17.030582 11.760197 11.9882949 5.15515485 14.766698 5.15515485 18.2139759 10.0955116 21.7127058 5.15515485 24.439657 5.15515485 19.6546294 11.760197 24.1823974 18.150441"></polygon>
                <path d="M27.5782234,16.217258 L27.5782234,25.0776804 L25.4686951,25.0776804 L25.4686951,11.8138965 C25.4686951,8.43082616 27.9383868,4.83295767 31.79728,4.83295767 C35.7076251,4.83295767 38.6403839,7.41053509 38.6403839,11.6527979 C38.6403839,15.7876617 35.6561732,18.6337368 32.2603472,18.6337368 C30.6138861,18.6337368 28.401454,17.8819434 27.5782234,16.217258 Z M36.4279518,11.6527979 C36.4279518,8.75302334 34.627135,7.03463839 31.4371166,7.19573698 C29.8935594,7.24943651 27.5267715,8.43082616 27.7325792,12.5656899 C27.7840311,13.9081782 29.1217807,16.4320561 32.0545395,16.4320561 C34.5756831,16.4320561 36.4279518,14.9284692 36.4279518,11.6527979 Z" id="path16"></path>
                <path d="M40.4412008,18.150441 L40.4412008,5.15515485 L42.5507291,5.15515485 L42.5507291,6.55134262 C43.5797672,5.31625344 45.1747764,4.8866572 46.8726895,4.8866572 L46.8726895,7.24943651 C46.6154299,7.19573698 44.0942863,6.8735398 42.5507291,10.3103097 L42.5507291,18.2041406 L40.4412008,18.2041406 L40.4412008,18.150441 Z" id="path18"></path>
                <path d="M47.4386605,11.6527979 C47.4386605,7.89383086 50.0112559,4.83295767 53.5614377,4.83295767 C57.9863019,4.83295767 59.632763,7.89383086 59.632763,11.8138965 L59.632763,12.8878871 L49.7539964,12.8878871 C49.9083521,15.3580655 52.0178804,16.6468542 53.9730529,16.5931547 C55.4137064,16.5394551 56.3912927,16.1098589 57.4203309,15.0358683 L58.8095324,16.5394551 C57.5232347,17.8282438 55.8767736,18.6874363 53.8701491,18.6874363 C50.1141597,18.6337368 47.4386605,15.7339622 47.4386605,11.6527979 Z M53.4070819,7.03463839 C51.4004575,7.03463839 49.8569002,8.8604224 49.7539964,10.847305 L57.4203309,10.847305 C57.4203309,8.91412192 56.0825812,7.03463839 53.4070819,7.03463839 Z" id="path20"></path>
                <path d="M60.7132531,16.324657 C60.7132531,16.324657 62.2568104,14.8747697 62.2568104,14.8747697 C62.2053584,14.8747697 63.028589,15.7339622 63.1314928,15.7876617 C63.4916562,16.1098589 63.8518195,16.324657 64.3148867,16.4320561 C65.6526364,16.8079528 68.0708761,16.7005537 68.2766838,14.7673707 C68.3795876,13.6933801 67.6078089,13.1026852 66.7331265,12.7267885 C65.6011845,12.2971923 64.3663386,12.1360937 63.2343966,11.5990984 C61.9480989,11.0084036 61.1248683,9.98811252 61.1248683,8.48452569 C61.1248683,4.56446002 66.4758669,3.92006567 68.8941067,5.74584967 C68.9970105,5.85324873 70.1804044,6.98093886 70.1289525,6.98093886 L68.5853952,8.26972757 C67.8136166,7.30313603 67.0932898,6.81984027 65.4468287,6.81984027 C64.6235982,6.81984027 63.4916562,7.19573698 63.2858485,8.10862898 C62.9771371,9.39741769 64.3663386,9.88071346 65.292473,10.1492111 C66.5273188,10.4714083 67.8650685,10.6862064 68.9455586,11.3843003 C70.4376639,12.3508918 70.7978273,14.4451735 70.2318563,16.0561594 C69.6144334,17.8282438 67.7621647,18.5263377 66.1157036,18.5800373 C64.160531,18.6874363 62.462618,18.043042 61.0734164,16.5931547 C60.9705126,16.5931547 60.7132531,16.324657 60.7132531,16.324657 Z" id="path22"></path>
                <path d="M71.569606,16.324657 C71.569606,16.324657 73.1131632,14.8747697 73.1131632,14.8747697 C73.0617113,14.8747697 73.8849419,15.7339622 73.9878457,15.7876617 C74.3480091,16.1098589 74.7081724,16.324657 75.1712396,16.4320561 C76.5089893,16.8079528 78.927229,16.7005537 79.1330366,14.7673707 C79.2359405,13.6933801 78.4641618,13.1026852 77.5894794,12.7267885 C76.4575373,12.2971923 75.2226915,12.1360937 74.0907495,11.5990984 C72.8044518,11.0084036 71.9812212,9.98811252 71.9812212,8.48452569 C71.9812212,4.56446002 77.3322198,3.92006567 79.7504595,5.74584967 C79.8533634,5.85324873 81.0367573,6.98093886 80.9853054,6.98093886 L79.4417481,8.26972757 C78.6699695,7.30313603 77.9496427,6.81984027 76.3031816,6.81984027 C75.4799511,6.81984027 74.3480091,7.19573698 74.1422014,8.10862898 C73.83349,9.39741769 75.2226915,9.88071346 76.1488259,10.1492111 C77.3836717,10.4714083 78.7214214,10.6862064 79.8019115,11.3843003 C81.2940168,12.3508918 81.6541802,14.4451735 81.0882092,16.0561594 C80.4707863,17.8282438 78.6185175,18.5263377 76.9720564,18.5800373 C75.0168839,18.6874363 73.3189709,18.043042 71.9297693,16.5931547 C71.8268655,16.5931547 71.569606,16.324657 71.569606,16.324657 Z" id="path24"></path>
                <g id="g30" transform="translate(80.779498, 3.221972)">
                    <polygon id="path26" points="0.82323055 1.93318307 0.82323055 0.536995297 0.360163366 0.536995297 0.360163366 0.268497648 1.59500919 0.268497648 1.59500919 0.536995297 1.13194201 0.536995297 1.13194201 1.93318307"></polygon>
                    <polygon id="path28" points="3.13856647 1.93318307 3.13856647 0.644394356 2.67549929 1.93318307 2.57259547 1.93318307 2.10952828 0.644394356 2.10952828 1.93318307 1.85226874 1.93318307 1.85226874 0.268497648 2.26388401 0.268497648 2.67549929 1.39618777 3.08711456 0.268497648 3.49872984 0.268497648 3.49872984 1.93318307"></polygon>
                </g>
            </g>
            <g id="g41" fill="#F7971D">
                <path d="M13.8961161,20.3985789 L12.3347547,16.0814193 L3.9034034,16.0814193 L2.34204204,20.3985789 L0.104090757,20.3985789 L6.86998998,2.32047326 L9.31612277,2.32047326 L16.0299766,20.3985789 L13.8961161,20.3985789 Z M8.01498831,4.910769 L4.84022021,13.8688751 L11.4499833,13.8688751 L8.01498831,4.910769 Z" id="path34"></path>
                <polygon id="path36" points="17.4352018 20.3985789 17.4352018 2.32047326 19.6211077 2.32047326 19.6211077 20.3985789"></polygon>
                <polygon id="path38" points="22.8999666 20.3985789 22.8999666 7.60899372 25.0858725 7.60899372 25.0858725 20.3985789"></polygon>
                <path d="M27.1676876,3.45372764 C27.1676876,3.39976315 27.1676876,3.39976315 27.1676876,3.34579866 C27.1676876,3.29183416 27.1676876,3.29183416 27.1676876,3.23786967 C25.5022355,3.18390517 24.1490557,1.78082832 24.0970103,0.0539644945 C24.0449649,0.0539644945 23.9929195,0.0539644945 23.9408742,0.0539644945 C23.8888288,0.0539644945 23.8367834,0.0539644945 23.784738,0.0539644945 C23.7326927,1.78082832 22.3795128,3.18390517 20.7140607,3.23786967 C20.7140607,3.29183416 20.7140607,3.29183416 20.7140607,3.34579866 C20.7140607,3.39976315 20.7140607,3.39976315 20.7140607,3.45372764 C22.3795128,3.50769214 23.7326927,4.910769 23.784738,6.63763282 C23.8367834,6.63763282 23.8888288,6.63763282 23.9408742,6.63763282 C23.9929195,6.63763282 24.0449649,6.63763282 24.0970103,6.63763282 C24.1490557,4.910769 25.5022355,3.50769214 27.1676876,3.45372764 Z" id="XMLID_1_"></path>
            </g>
        </g>
    </g>
</svg>