
<svg width="116px" height="40px" viewBox="0 0 116 40" version="1.1" xmlns="http://www.w3.org/2000/svg" xmlns:xlink="http://www.w3.org/1999/xlink">
    <!-- Generator: Sketch 49.1 (51147) - http://www.bohemiancoding.com/sketch -->
    <desc>Created with Sketch.</desc>
    <defs>
        <polygon id="path-1" points="0.11393319 0.000504283347 17.9124613 0.000504283347 17.9124613 27.2994412 0.11393319 27.2994412"></polygon>
        <polygon id="path-3" points="0.258236833 0.000632016181 14.4787795 0.000632016181 14.4787795 9.27476287 0.258236833 9.27476287"></polygon>
        <polygon id="path-5" points="0.11412639 0.0201704853 17.9124613 0.0201704853 17.9124613 27.3168248 0.11412639 27.3168248"></polygon>
    </defs>
    <g id="Page-1" stroke="none" stroke-width="1" fill="none" fill-rule="evenodd">
        <g id="Home" transform="translate(-248.000000, -25.000000)">
            <g id="Group" transform="translate(248.000000, 25.000000)">
                <g id="Group-3" transform="translate(97.478992, 0.513479)">
                    <mask id="mask-2" fill="white">
                        <use xlink:href="#path-1"></use>
                    </mask>
                    <g id="Clip-2"></g>
                    <path d="M0.152849323,0.936258192 C0.209153515,0.366186746 0.717547254,-0.051847253 1.2869372,0.00582212368 C1.82293103,0.0588006898 2.21733638,0.511601872 2.21733638,1.03862823 L2.22975643,1.03862823 C2.2228564,1.09767726 2.21926839,1.15838187 2.21402437,1.21825868 C2.19967232,1.386576 2.18890829,1.55682483 2.18890829,1.73010889 C2.18890829,1.96713279 2.20326033,2.19753437 2.22975643,2.42158955 C2.33739679,3.30180636 2.64817386,4.08048091 3.11240744,4.78520621 C3.43753656,5.27912097 3.83828993,5.73633703 4.29645149,6.16844346 C5.21581064,7.03486376 6.36756258,7.79643065 7.61425884,8.53261197 C8.0704884,8.80191968 8.538862,9.06819217 9.01358363,9.33446465 C9.1816682,9.42828086 9.35002878,9.52320079 9.51976936,9.61784479 C10.0538312,9.91640108 10.589825,10.216613 11.1189188,10.5231712 C11.5737684,10.7869603 12.0230979,11.056268 12.4611114,11.3333018 C15.4521336,13.2259059 17.9126821,15.5164011 17.9126821,19.3167854 C17.9126821,23.1171697 15.4524096,25.407389 12.4619394,27.2994412 C11.7724891,26.882235 11.0811067,26.4928978 10.4129084,26.1190126 C11.6596047,25.3828312 12.8116326,24.6209884 13.7309918,23.7542922 C14.1891533,23.3227376 14.5899067,22.8652456 14.9147598,22.3716068 C15.3789934,21.6663296 15.6900465,20.8884829 15.7965828,20.0077142 C15.8239069,19.7844868 15.837707,19.5546371 15.837707,19.3167854 C15.837707,19.0792097 15.8236309,18.8488081 15.7965828,18.6247529 C15.6894945,17.7445361 15.3784414,16.9661375 14.9142078,16.2608603 C14.5893547,15.7672215 14.1886013,15.3097295 13.7304398,14.877899 C12.8113566,14.0114787 11.6590527,13.2496359 10.4123564,12.5142823 C9.95667885,12.2446987 9.48775325,11.9789781 9.01358363,11.7127056 C8.84494705,11.6177857 8.67658647,11.5231417 8.50684589,11.4282217 C7.97278407,11.1299414 7.43706623,10.8297295 6.90797242,10.5231712 C6.45312287,10.2593821 6.00406933,9.99062626 5.56577983,9.71331658 C2.76133424,7.93825868 0.425814256,5.81276965 0.145397297,2.42158955 C0.126353232,2.19560286 0.11393319,1.966305 0.11393319,1.73010889 C0.11393319,1.46273269 0.127181235,1.19563242 0.152849323,0.936258192" id="Fill-1" fill="#FFFFFF" mask="url(#mask-2)"></path>
                </g>
                <g id="Group-6" transform="translate(100.899307, 0.513479)">
                    <mask id="mask-4" fill="white">
                        <use xlink:href="#path-3"></use>
                    </mask>
                    <g id="Clip-5"></g>
                    <path d="M9.07277548,9.27476287 C8.38934424,8.87717931 7.7039971,8.50462587 7.04109343,8.14761743 C8.27767426,7.44466652 9.42037567,6.71721244 10.3317998,5.88990139 L3.16630928,5.88990139 C2.5288598,5.4549044 1.98501604,5.02069783 1.54764194,4.5693654 L11.5057031,4.5693654 C11.9657944,3.89618714 12.2748027,3.15292457 12.3804513,2.3121763 L0.320093245,2.3121763 C0.283417319,2.09849819 0.258236833,1.88060449 0.258236833,1.65190831 C0.258236833,1.42268519 0.283417319,1.20505495 0.320093245,0.991903794 L12.3930415,0.991903794 C12.3930415,0.488403342 12.7847076,0.0563045769 13.3156874,0.00545392954 C13.8822483,-0.0480314664 14.3850369,0.349552093 14.4405982,0.893891147 C14.4657787,1.14076709 14.4789164,1.39554727 14.4789164,1.65190831 C14.4789164,1.87770626 14.4665998,2.09665387 14.4482619,2.3121763 C14.169908,5.55028229 11.8538507,7.57982912 9.07277548,9.27476287" id="Fill-4" fill="#FFFFFF" mask="url(#mask-4)"></path>
                </g>
                <path d="M103.072576,28.7548139 C103.779704,29.1589914 104.488813,29.5366874 105.174701,29.8991364 C103.895245,30.6128 102.71349,31.3508051 101.770465,32.1901889 C101.300368,32.6085434 100.889175,33.052042 100.555293,33.5305817 C100.079249,34.2142864 99.7603766,34.9688759 99.6504986,35.8224367 C99.6224627,36.0393712 99.60802,36.2627254 99.60802,36.4927669 C99.60802,36.6588782 99.6190644,36.8233846 99.633224,36.9852161 C99.639171,37.0445989 99.6428525,37.1047842 99.6504986,37.163097 L99.6371886,37.163097 C99.6371886,37.6740031 99.2322258,38.1121518 98.6825525,38.1635099 C98.6471536,38.1672548 98.6117548,38.1685922 98.5766391,38.1685922 C98.0357447,38.1685922 97.5730109,37.7807316 97.5189215,37.2618008 C97.4925848,37.0103602 97.4789916,36.7514298 97.4789916,36.4927669 C97.4789916,36.2627254 97.4917352,36.0412436 97.5109922,35.8224367 C97.7989972,32.5355186 100.195358,30.4750426 103.072576,28.7548139" id="Fill-7" fill="#FFFFFF"></path>
                <g id="Group-11" transform="translate(97.478992, 11.638853)">
                    <mask id="mask-6" fill="white">
                        <use xlink:href="#path-5"></use>
                    </mask>
                    <g id="Clip-10"></g>
                    <path d="M15.7965,24.8966425 C15.6899637,24.0164257 15.3783586,23.2377512 14.914401,22.5327499 L4.87293466,22.5327499 C5.31398417,22.0606337 5.86239805,21.605901 6.50575625,21.1497886 L13.730357,21.1497886 C12.8112738,20.2839202 11.6592459,19.5226292 10.4128256,18.7864479 C9.95659605,18.5174161 9.48822245,18.2519714 9.01377683,17.9848712 C8.84486425,17.890779 8.67650367,17.796135 8.50731509,17.701491 C7.97297727,17.4032106 7.43698343,17.1029988 6.90761362,16.7961646 C6.45276407,16.5323755 6.00371053,16.2630678 5.56569703,15.9863099 C2.57495081,14.0942577 0.11412639,11.8040384 0.11412639,8.0036541 C0.11412639,4.20326977 2.57495081,1.91277458 5.56597304,0.0201704853 C6.25487139,0.436824834 6.94625376,0.827265829 7.61417604,1.20115102 C6.36747978,1.93650456 5.21572784,2.69834738 4.29664469,3.56476768 L11.5217974,3.56476768 C12.1648796,4.02060409 12.7130175,4.47561271 13.154067,4.947729 L3.11260064,4.947729 C2.64836706,5.65300616 2.33731399,6.43140478 2.23050163,7.31189751 L14.3922072,7.31189751 C14.4286393,7.53567677 14.4543074,7.76359497 14.4543074,8.0036541 C14.4543074,8.2434373 14.4291913,8.47135551 14.3924832,8.6945829 L2.22994963,8.6945829 C2.33648599,9.57535156 2.64809106,10.3531983 3.11232464,11.0584755 L13.154619,11.0584755 C12.7135695,11.5311436 12.1654316,11.9856004 11.5223494,12.4411609 L4.29609269,12.4411609 C5.21517584,13.3078571 6.36747978,14.0696999 7.61417604,14.8058813 C8.0704056,15.074913 8.5387792,15.3403577 9.01377683,15.6071821 C9.1815854,15.7015501 9.35077398,15.7964701 9.51996256,15.8908381 C10.0540244,16.1891185 10.5900182,16.4893304 11.119112,16.7961646 C11.5739616,17.0599537 12.0232911,17.3284336 12.4618566,17.6060192 C15.2657502,19.3805253 17.6009942,21.5060143 17.8816872,24.8966425 C17.9001792,25.1223533 17.9125993,25.3508234 17.9125993,25.5881232 C17.9125993,25.8563272 17.8993512,26.1234274 17.8739591,26.3819739 C17.8212429,26.9172781 17.3697054,27.3168248 16.8428196,27.3168248 C16.8085955,27.3168248 16.7740954,27.315997 16.7395952,27.312134 C16.2041534,27.2594314 15.8091961,26.8066302 15.8091961,26.2796038 L3.63479443,26.2796038 C3.5978103,26.0561005 3.57241822,25.8279064 3.57241822,25.5881232 C3.57241822,25.3480641 3.5978103,25.1198699 3.63479443,24.8966425 L15.7965,24.8966425 Z" id="Fill-9" fill="#FFFFFF" mask="url(#mask-6)"></path>
                </g>
                <path d="M16.1378951,28.3514888 L12.0490941,28.3514888 C11.8484799,28.3514888 11.6859852,28.190841 11.6859852,27.992507 L11.6859852,11.5456372 C11.6859852,11.3475782 11.8484799,11.1866553 12.0490941,11.1866553 L16.1378951,11.1866553 C20.6454538,11.1866553 23.9287374,14.6524118 23.9287374,19.7689345 C23.9287374,24.8851822 20.6454538,28.3514888 16.1378951,28.3514888 M16.1378951,0.513478819 L0.3631089,0.513478819 C0.162494711,0.513478819 0,0.674401712 0,0.872460657 L0,38.6654084 C0,38.8637424 0.162494711,39.0243902 0.3631089,39.0243902 L16.1378951,39.0243902 C26.8778494,39.0243902 35.0582338,30.6619014 35.0582338,19.7689345 C35.0582338,8.87596762 26.8778494,0.513478819 16.1378951,0.513478819" id="Fill-12" fill="#2397D4"></path>
                <path d="M83.3357997,24.8180622 L86.0827409,14.727234 C86.1790615,14.3732037 86.6859243,14.3732037 86.7822449,14.727234 L89.5291861,24.8180622 C89.5913643,25.0461051 89.4178762,25.2705719 89.1794341,25.2705719 L83.6858293,25.2705719 C83.4471096,25.2705719 83.2736215,25.0461051 83.3357997,24.8180622 M92.6630752,0.513478819 L80.2019106,0.513478819 C80.0445222,0.513478819 79.904899,0.614708947 79.8568774,0.763528237 L68.8197032,35.0973215 C68.6942366,35.4882128 68.1121493,35.3985361 68.1121493,34.9883891 L68.1121493,0.872460657 C68.1121493,0.67412663 67.950042,0.513478819 67.7499061,0.513478819 L57.3714315,0.513478819 C57.1712956,0.513478819 57.0091883,0.67412663 57.0091883,0.872460657 L57.0091883,16.9622742 C57.0091883,17.3152043 56.5497918,17.4563213 56.3482681,17.1658348 L44.9036049,0.669175157 C44.8361528,0.571521093 44.7245652,0.513478819 44.6052054,0.513478819 L36.2755559,0.513478819 C36.0756976,0.513478819 35.9133127,0.67412663 35.9133127,0.872460657 L35.9133127,38.6654084 C35.9133127,38.8637424 36.0756976,39.0243902 36.2755559,39.0243902 L46.6540305,39.0243902 C46.8541664,39.0243902 47.0162737,38.8637424 47.0162737,38.6654084 L47.0162737,22.5755948 C47.0162737,22.2226648 47.4756701,22.0815478 47.6771939,22.3717592 L59.1218571,38.8686939 C59.1893092,38.966348 59.3008968,39.0243902 59.4202566,39.0243902 L67.557265,39.0243902 L68.1121493,39.0243902 L79.2148327,39.0243902 C79.378883,39.0243902 79.52267,38.9149077 79.5648623,38.7578359 L80.7537415,34.339746 C80.7962114,34.1826743 80.9397208,34.0731917 81.1037711,34.0731917 L91.7614922,34.0731917 C91.925265,34.0731917 92.0690519,34.1826743 92.1112442,34.339746 L93.3001235,38.7578359 C93.3425934,38.9149077 93.4861028,39.0243902 93.6501531,39.0243902 L104.811961,39.0243902 C105.057343,39.0243902 105.231941,38.7878198 105.157272,38.5562009 L93.0081083,0.763528237 C92.9603644,0.614708947 92.8207412,0.513478819 92.6630752,0.513478819" id="Fill-14" fill="#2397D4"></path>
            </g>
        </g>
    </g>
</svg>