<?xml version="1.0" encoding="UTF-8"?>
<svg width="315px" height="133px" viewBox="0 0 315 133" version="1.1" xmlns="http://www.w3.org/2000/svg" xmlns:xlink="http://www.w3.org/1999/xlink">
    <!-- Generator: Sketch 49.1 (51147) - http://www.bohemiancoding.com/sketch -->
    <title>Group</title>
    <desc>Created with Sketch.</desc>
    <defs>
        <polygon id="path-1" points="0.310900102 0.00138106662 48.8794007 0.00138106662 48.8794007 74.7642119 0.310900102 74.7642119"></polygon>
        <polygon id="path-3" points="0.710596527 0.00181270859 39.8416071 0.00181270859 39.8416071 26.6012847 0.710596527 26.6012847"></polygon>
        <polygon id="path-5" points="0.311427307 0.0552403409 48.8794007 0.0552403409 48.8794007 74.8118199 0.311427307 74.8118199"></polygon>
        <polygon id="path-7" points="0.346320682 0.0748125 15.9728862 0.0748125 15.9728862 18.8994511 0.346320682 18.8994511"></polygon>
    </defs>
    <g id="Page-1" stroke="none" stroke-width="1" fill="none" fill-rule="evenodd">
        <g id="Sign-in" transform="translate(-803.000000, -415.000000)">
            <g id="Group" transform="translate(803.000000, 415.000000)">
                <g id="Group-3" transform="translate(265.861764, 27.129733)">
                    <mask id="mask-2" fill="white">
                        <use xlink:href="#path-1"></use>
                    </mask>
                    <g id="Clip-2"></g>
                    <path d="M0.417094178,2.56410398 C0.57073667,1.00286534 1.958038,-0.141992614 3.51178536,0.0159448864 C4.97440163,0.161035795 6.05065223,1.40110966 6.05065223,2.84446193 L6.08454396,2.84446193 C6.06571522,3.00617784 6.05592428,3.17242784 6.04161444,3.3364108 C6.00245066,3.7973767 5.97307783,4.26363239 5.97307783,4.73820057 C5.97307783,5.38733125 6.01224161,6.01832557 6.08454396,6.6319392 C6.37827225,9.0425642 7.22631856,11.1750983 8.49311597,13.1051097 C9.38032605,14.4577801 10.4738991,15.7099449 11.7241272,16.8933426 C14.2328681,19.2661835 17.3757608,21.3518653 20.777737,23.3680244 C22.0226931,24.1055699 23.3007877,24.8348028 24.5962048,25.5640358 C25.0548729,25.8209676 25.514294,26.0809222 25.977481,26.340121 C27.4348252,27.1577687 28.8974415,27.9799506 30.341229,28.8195131 C31.5824193,29.5419449 32.8085467,30.2794903 34.0037949,31.0381949 C42.1656757,36.2214165 48.8800033,42.4943312 48.8800033,52.9023369 C48.8800033,63.3103426 42.1664289,69.5825017 34.0060543,74.7642119 C32.124687,73.621621 30.2380475,72.555354 28.4146727,71.5314051 C31.8166488,69.515246 34.9602947,67.4288085 37.4690356,65.0552119 C38.7192637,63.8733256 39.8128368,62.6204051 40.6992937,61.2684903 C41.9660911,59.3369676 42.8148906,57.2067006 43.1056063,54.7945642 C43.1801681,54.1832176 43.2178255,53.5537347 43.2178255,52.9023369 C43.2178255,52.2516949 43.1794149,51.6207006 43.1056063,51.0070869 C42.8133843,48.5964619 41.9645848,46.4646835 40.6977874,44.5331608 C39.8113305,43.181246 38.7177574,41.9283256 37.4675293,40.7456835 C34.9595416,38.3728426 31.8151425,36.2864051 28.4131664,34.2725131 C27.1697166,33.5342119 25.8901156,32.8064903 24.5962048,32.0772574 C24.1360305,31.8173028 23.6766093,31.558104 23.2134224,31.2981494 C21.7560782,30.4812574 20.294215,29.6590756 18.8504275,28.8195131 C17.6092372,28.0970812 16.383863,27.3610472 15.1878616,26.6015869 C7.53510984,21.7402858 1.16195901,15.9192687 0.396759142,6.6319392 C0.344791828,6.0130358 0.310900102,5.3850642 0.310900102,4.73820057 C0.310900102,4.00594489 0.347051277,3.27444489 0.417094178,2.56410398" id="Fill-1" fill="#FFFFFF" mask="url(#mask-2)"></path>
                </g>
                <g id="Group-6" transform="translate(274.899557, 27.129733)">
                    <mask id="mask-4" fill="white">
                        <use xlink:href="#path-3"></use>
                    </mask>
                    <g id="Clip-5"></g>
                    <path d="M24.9657753,26.6012847 C23.085161,25.4609608 21.1992748,24.3924267 19.3751467,23.3684778 C22.7778761,21.3523187 25.9222751,19.2658812 28.4302629,16.8930403 L8.71280967,16.8930403 C6.95872455,15.6454097 5.46221655,14.400046 4.25868369,13.1055631 L31.6605209,13.1055631 C32.9265652,11.174796 33.776871,9.04301761 34.0675867,6.63163693 L0.880808308,6.63163693 C0.779886279,6.01877898 0.710596527,5.39383011 0.710596527,4.7378983 C0.710596527,4.08045511 0.779886279,3.45626193 0.880808308,2.84491534 L34.1022315,2.84491534 C34.1022315,1.40080739 35.1799884,0.161489205 36.6410984,0.0156426136 C38.2001178,-0.137760795 39.5836534,1.00256307 39.7365427,2.5638017 C39.8058325,3.27187557 39.8419837,4.00261989 39.8419837,4.7378983 C39.8419837,5.38551761 39.8080919,6.0134892 39.7576309,6.63163693 C38.9916779,15.9189665 32.6185271,21.7399835 24.9657753,26.6012847" id="Fill-4" fill="#FFFFFF" mask="url(#mask-4)"></path>
                </g>
                <path d="M281.049098,106.329873 C282.929712,107.471708 284.815599,108.538731 286.639727,109.56268 C283.236997,111.578839 280.094105,113.663765 277.586117,116.035094 C276.335889,117.216981 275.242316,118.469901 274.354352,119.821816 C273.088308,121.753339 272.240262,123.885117 271.94804,126.296498 C271.873478,126.909356 271.835067,127.54035 271.835067,128.190236 C271.835067,128.659515 271.86444,129.124259 271.902098,129.581447 C271.917914,129.749208 271.927705,129.919236 271.94804,130.083975 L271.912642,130.083975 C271.912642,131.527327 270.835638,132.765134 269.373775,132.910225 C269.279631,132.920805 269.185488,132.924583 269.092097,132.924583 C267.653582,132.924583 266.422935,131.828844 266.279084,130.362822 C266.209041,129.652481 266.17289,128.920981 266.17289,128.190236 C266.17289,127.54035 266.206781,126.914645 266.257996,126.296498 C267.023949,117.01068 273.397099,111.189662 281.049098,106.329873" id="Fill-7" fill="#FFFFFF"></path>
                <g id="Group-11" transform="translate(265.861764, 58.112687)">
                    <mask id="mask-6" fill="white">
                        <use xlink:href="#path-5"></use>
                    </mask>
                    <g id="Clip-10"></g>
                    <path d="M43.1053803,68.1837347 C42.8146646,65.7731097 41.9643589,63.6405756 40.6983146,61.7098085 L13.2972305,61.7098085 C14.5007634,60.4168369 15.9972714,59.1714733 17.7528628,57.9223312 L37.4673034,57.9223312 C34.9593156,55.5510017 31.8156697,53.4660756 28.4144467,51.4499165 C27.1694906,50.7131267 25.891396,49.9861608 24.596732,49.2546608 C24.1358046,48.9969733 23.6763834,48.7377744 23.2147028,48.4785756 C21.7566054,47.6616835 20.2939891,46.8395017 18.8494484,45.9991835 C17.6082581,45.2767517 16.3828839,44.5392062 15.1876357,43.7812574 C7.026508,38.5995472 0.311427307,32.3273881 0.311427307,21.9193824 C0.311427307,11.5113767 7.026508,5.23846193 15.1883888,0.0552403409 C17.0682499,1.19631989 18.9548893,2.26560966 20.7775111,3.28955852 C17.3755349,5.30345057 14.2326422,7.38988807 11.7246544,9.76272898 L31.4406013,9.76272898 C33.1954396,11.0111153 34.6911944,12.2572347 35.8947273,13.5502062 L8.49364317,13.5502062 C7.22684576,15.481729 6.37804631,17.6135074 6.08657746,20.0248881 L39.2733558,20.0248881 C39.3727715,20.637746 39.4428144,21.2619392 39.4428144,21.9193824 C39.4428144,22.5760699 39.3742778,23.2002631 39.274109,23.8116097 L6.08507116,23.8116097 C6.37578686,26.223746 7.22609261,28.3540131 8.49289002,30.2855358 L35.8962336,30.2855358 C34.6927007,31.5800187 33.1969459,32.8246267 31.4421076,34.0722574 L11.7231481,34.0722574 C14.2311359,36.445854 17.3755349,38.5322915 20.7775111,40.5484506 C22.0224671,41.2852403 23.3005618,42.0122062 24.596732,42.7429506 C25.0546469,43.0013937 25.5163275,43.2613483 25.9780082,43.5197915 C27.4353524,44.3366835 28.8979687,45.1588653 30.3417562,45.9991835 C31.5829465,46.7216153 32.8090739,47.4568937 34.0058284,48.2171097 C41.6570739,53.0768994 48.0294716,58.8979165 48.7954246,68.1837347 C48.8458856,68.8018824 48.8797773,69.4275869 48.8797773,70.0774733 C48.8797773,70.811996 48.8436261,71.543496 48.7743364,72.2515699 C48.6304848,73.7175926 47.3983323,74.8118199 45.96057,74.8118199 C45.8671794,74.8118199 45.7730358,74.8095528 45.6788921,74.7989733 C44.2177821,74.6546381 43.1400252,73.4145642 43.1400252,71.9712119 L9.91860197,71.9712119 C9.81767995,71.3591097 9.74839019,70.7341608 9.74839019,70.0774733 C9.74839019,69.4200301 9.81767995,68.7950812 9.91860197,68.1837347 L43.1053803,68.1837347 Z" id="Fill-9" fill="#FFFFFF" mask="url(#mask-6)"></path>
                </g>
                <path d="M43.6819916,103.605262 L32.6144601,103.605262 C32.0714393,103.605262 31.6316,103.163944 31.6316,102.619097 L31.6316,57.4376369 C31.6316,56.893546 32.0714393,56.4514722 32.6144601,56.4514722 L43.6819916,56.4514722 C55.883013,56.4514722 64.7701768,65.9723074 64.7701768,80.0279892 C64.7701768,94.0829153 55.883013,103.605262 43.6819916,103.605262 M43.6819916,27.1310176 L0.982935376,27.1310176 C0.439914607,27.1310176 7.53149473e-05,27.5730915 7.53149473e-05,28.1171824 L7.53149473e-05,131.938796 C7.53149473e-05,132.483643 0.439914607,132.924961 0.982935376,132.924961 L43.6819916,132.924961 C72.752808,132.924961 94.8954025,109.952234 94.8954025,80.0279892 C94.8954025,50.1037449 72.752808,27.1310176 43.6819916,27.1310176" id="Fill-12" fill="#2397D4"></path>
                <path d="M227.329808,93.8987557 L234.782975,66.1780795 C235.044318,65.205517 236.419569,65.205517 236.680912,66.1780795 L244.134079,93.8987557 C244.302785,94.5252159 243.832066,95.1418523 243.185111,95.1418523 L228.27953,95.1418523 C227.631821,95.1418523 227.161103,94.5252159 227.329808,93.8987557 M252.637137,27.1312443 L218.826751,27.1312443 C218.399715,27.1312443 218.020881,27.4093352 217.890586,27.8181591 L187.943857,122.137074 C187.603433,123.210898 186.024079,122.964545 186.024079,121.837824 L186.024079,28.1174091 C186.024079,27.5725625 185.584239,27.1312443 185.041219,27.1312443 L156.881713,27.1312443 C156.338692,27.1312443 155.898853,27.5725625 155.898853,28.1174091 L155.898853,72.3179943 C155.898853,73.2875341 154.65239,73.6751989 154.105604,72.8771989 L123.053251,27.5589602 C122.870236,27.2906932 122.56747,27.1312443 122.243616,27.1312443 L99.6431062,27.1312443 C99.1008385,27.1312443 98.6602461,27.5725625 98.6602461,28.1174091 L98.6602461,131.939023 C98.6602461,132.483869 99.1008385,132.925187 99.6431062,132.925187 L127.802612,132.925187 C128.345633,132.925187 128.785472,132.483869 128.785472,131.939023 L128.785472,87.7384375 C128.785472,86.7688977 130.031934,86.381233 130.578721,87.1784773 L161.631073,132.497472 C161.814089,132.765739 162.116855,132.925187 162.440709,132.925187 L184.518533,132.925187 L186.024079,132.925187 L216.148551,132.925187 C216.593663,132.925187 216.983794,132.624426 217.098273,132.192932 L220.324012,120.055926 C220.439244,119.624432 220.828622,119.32367 221.273733,119.32367 L250.190907,119.32367 C250.635266,119.32367 251.025397,119.624432 251.139876,120.055926 L254.365615,132.192932 C254.480847,132.624426 254.870225,132.925187 255.315336,132.925187 L285.60023,132.925187 C286.266014,132.925187 286.739745,132.275301 286.537148,131.639017 L253.573302,27.8181591 C253.44376,27.4093352 253.064926,27.1312443 252.637137,27.1312443" id="Fill-14" fill="#2397D4"></path>
                <path d="M24.6237701,13.7035341 C24.5507146,12.5503636 23.539988,11.673017 22.3741126,11.673017 L18.1195713,11.673017 L18.1195713,16.1111364 L22.4321051,16.1111364 C23.7644266,16.1111364 24.7111354,15.0834091 24.6237701,13.7035341 M18.1195713,4.35121591 L18.1195713,8.20897159 C18.1195713,8.295875 18.1903673,8.36615341 18.2769795,8.36615341 L21.8627241,8.36615341 C23.096383,8.36615341 23.9963966,7.37243182 23.8879431,6.08701705 C23.7983183,5.02226136 22.8568814,4.22426136 21.7783714,4.22426136 L18.2476067,4.22426136 C18.1768106,4.22426136 18.1195713,4.2809375 18.1195713,4.35121591 M28.3450816,14.1206705 C28.3450816,17.3474318 25.7143305,19.5797159 22.4321051,19.5797159 L14.5300609,19.5797159 C14.444955,19.5797159 14.3764184,19.5117045 14.3764184,19.4270682 L14.3764184,0.905306818 C14.3764184,0.8229375 14.4442018,0.755681818 14.5270483,0.755681818 L21.8627241,0.755681818 C25.0628562,0.755681818 27.6401337,2.90710795 27.6401337,6.05301136 C27.6401337,7.66714773 26.9615461,8.93140341 25.8498974,9.81781818 C27.3689999,10.6785398 28.3450816,12.1574091 28.3450816,14.1206705" id="Fill-16" fill="#FFFFFF"></path>
                <path d="M40.624506,12.537517 L38.2166871,5.42730682 C38.1737576,5.29959659 37.9922486,5.29959659 37.9485659,5.42730682 L35.5415002,12.537517 C35.510621,12.6281989 35.5784045,12.7226591 35.6755608,12.7226591 L40.4904454,12.7226591 C40.5868485,12.7226591 40.6553851,12.6281989 40.624506,12.537517 M41.7519707,16.1912386 L34.3876752,16.1912386 C34.3266701,16.1912386 34.2724433,16.2305341 34.2528614,16.2872102 L33.1781171,19.4837443 C33.1592884,19.5419318 33.1058148,19.5797159 33.0448097,19.5797159 L29.3039162,19.5797159 C29.20676,19.5797159 29.1389765,19.4845 29.1706088,19.3930625 L35.716984,0.849386364 C35.737319,0.793465909 35.7907926,0.755681818 35.8502915,0.755681818 L40.2886013,0.755681818 C40.3481001,0.755681818 40.4015737,0.793465909 40.4211556,0.849386364 L46.9946442,19.3930625 C47.0270296,19.4845 46.9592462,19.5797159 46.8613367,19.5797159 L43.0948362,19.5797159 C43.0338311,19.5797159 42.9796044,19.5419318 42.9600225,19.4837443 L41.8852782,16.2872102 C41.8664494,16.2305341 41.8129758,16.1912386 41.7519707,16.1912386" id="Fill-18" fill="#FFFFFF"></path>
                <path d="M63.634578,0.907120455 L63.634578,19.4288818 C63.634578,19.5120068 63.5660414,19.5800182 63.4816887,19.5800182 L60.8660005,19.5800182 C60.8162927,19.5800182 60.7695974,19.5558364 60.7409777,19.5150295 L52.6491398,8.07022841 L52.6491398,19.4288818 C52.6491398,19.5120068 52.5806032,19.5800182 52.4962505,19.5800182 L49.0588763,19.5800182 C48.9745235,19.5800182 48.9059869,19.5120068 48.9059869,19.4288818 L48.9059869,0.907120455 C48.9059869,0.823239773 48.9745235,0.755984091 49.0588763,0.755984091 L51.6745644,0.755984091 C51.7242723,0.755984091 51.7709675,0.779410227 51.7995872,0.820217045 L59.8914251,12.2385693 L59.8914251,0.907120455 C59.8914251,0.823239773 59.9599617,0.755984091 60.0443145,0.755984091 L63.4816887,0.755984091 C63.5660414,0.755984091 63.634578,0.823239773 63.634578,0.907120455" id="Fill-20" fill="#FFFFFF"></path>
                <g id="Group-24" transform="translate(65.524004, 0.680869)">
                    <mask id="mask-8" fill="white">
                        <use xlink:href="#path-7"></use>
                    </mask>
                    <g id="Clip-23"></g>
                    <path d="M11.7889734,18.8223716 L8.28306258,12.9945534 C8.22130432,12.8917807 8.07142758,12.8917807 8.00966932,12.9945534 L4.50375853,18.8223716 C4.47513885,18.8692239 4.42317154,18.8994511 4.36743847,18.8994511 L0.50604113,18.8994511 C0.382524617,18.8994511 0.305703371,18.7664511 0.368967926,18.6606557 L5.98294409,9.32571818 C6.01231692,9.2750875 6.01231692,9.21387727 5.98294409,9.16475795 L0.667215117,0.312701136 C0.603950562,0.207661364 0.680771808,0.0746613636 0.803535172,0.0746613636 L4.66568567,0.0746613636 C4.72141873,0.0746613636 4.77338604,0.103377273 4.80200572,0.151740909 L8.00966932,5.49441136 C8.07142758,5.59718409 8.22130432,5.59718409 8.28306258,5.49441136 L11.4907262,0.151740909 C11.5193459,0.103377273 11.57056,0.0746613636 11.6270462,0.0746613636 L15.4884436,0.0746613636 C15.6119601,0.0746613636 15.6880282,0.207661364 15.6247636,0.313456818 L10.310541,9.13755341 C10.2811681,9.18667273 10.2811681,9.24863864 10.310541,9.29851364 L15.9501242,18.6606557 C16.0133888,18.7656955 15.9373207,18.8994511 15.8138042,18.8994511 L11.9252934,18.8994511 C11.8695604,18.8994511 11.8175931,18.8692239 11.7889734,18.8223716" id="Fill-22" fill="#FFFFFF" mask="url(#mask-8)"></path>
                </g>
                <path d="M4.61085638,16.0207568 C4.12206238,15.9572795 3.74322819,15.5477 3.74322819,15.046683 L3.74322819,11.9536773 C3.74322819,11.873575 3.8087522,11.8085864 3.88933919,11.8085864 L10.7844226,11.8085864 C10.8657628,11.8085864 10.9312868,11.742842 10.9312868,11.6627398 L10.9312868,8.4571375 C10.9312868,8.37703523 10.8657628,8.31280227 10.7844226,8.31280227 L3.88933919,8.31280227 C3.8087522,8.31280227 3.74322819,8.24705795 3.74322819,8.16695568 L3.74322819,4.4505125 C3.74322819,4.37041023 3.8087522,4.30542159 3.88933919,4.30542159 L11.4630103,4.30542159 C11.5443504,4.30542159 11.6098744,4.24043295 11.6098744,4.16033068 L11.6098744,0.901075 C11.6098744,0.820972727 11.5443504,0.755984091 11.4630103,0.755984091 L0.146186313,0.755984091 C0.065599319,0.755984091 7.53149473e-05,0.820972727 7.53149473e-05,0.901075 L7.53149473e-05,12.2408364 L7.53149473e-05,16.0683648 C7.53149473e-05,18.0112227 1.58846755,19.5868193 3.54816248,19.5868193 L11.7454413,19.5868193 L11.7454413,16.0207568 L4.61085638,16.0207568 Z" id="Fill-25" fill="#FFFFFF"></path>
            </g>
        </g>
    </g>
</svg>