
<svg width="152px" height="35px" viewBox="0 0 152 35" version="1.1" xmlns="http://www.w3.org/2000/svg" xmlns:xlink="http://www.w3.org/1999/xlink">
    <!-- Generator: Sketch 49.1 (51147) - http://www.bohemiancoding.com/sketch -->
    <desc>Created with Sketch.</desc>
    <defs>
        <polygon id="path-1" points="0.559373451 0 26.5903823 0 26.5903823 34.9882885 0.559373451 34.9882885"></polygon>
        <polygon id="path-3" points="0.539088648 0 33.7837186 0 33.7837186 34.98775 0.539088648 34.98775"></polygon>
        <polygon id="path-5" points="0.341238752 0 29.4610767 0 29.4610767 34.9876827 0.341238752 34.9876827"></polygon>
    </defs>
    <g id="Page-1" stroke="none" stroke-width="1" fill="none" fill-rule="evenodd">
        <g id="Home" transform="translate(-80.000000, -28.000000)">
            <g id="Page-1" transform="translate(80.000000, 28.000000)">
                <g id="Group-3" transform="translate(26.230088, 0.000067)">
                    <mask id="mask-2" fill="white">
                        <use xlink:href="#path-1"></use>
                    </mask>
                    <g id="Clip-2"></g>
                    <path d="M19.6555504,24.0655962 C19.519692,21.9218462 17.6358336,20.293 15.4634442,20.293 L7.53455929,20.293 L7.53455929,28.5402115 L15.5717274,28.5402115 C18.0541699,28.5402115 19.8183115,26.6306923 19.6555504,24.0655962 M7.53455929,6.68338462 L7.53455929,13.8543462 C7.53455929,14.0145385 7.6663823,14.1451154 7.82914336,14.1451154 L14.5104177,14.1451154 C16.8099221,14.1451154 18.4873027,12.2988654 18.2848602,9.90876923 C18.1173912,7.92925 16.3626655,6.44780769 14.3537097,6.44780769 L7.77332035,6.44780769 C7.64149735,6.44780769 7.53455929,6.55348077 7.53455929,6.68338462 M26.5903823,24.8409808 C26.5903823,30.8394423 21.688046,34.9882885 15.5717274,34.9882885 L0.846559292,34.9882885 C0.687833628,34.9882885 0.559373451,34.8610769 0.559373451,34.70425 L0.559373451,0.278384615 C0.559373451,0.124923077 0.685815929,-0.000269230769 0.841178761,-0.000269230769 L14.5104177,-0.000269230769 C20.4747363,-0.000269230769 25.2761876,3.99915385 25.2761876,9.84684615 C25.2761876,12.8454038 24.0124354,15.1951154 21.940931,16.8441538 C24.7710903,18.4440577 26.5903823,21.1922308 26.5903823,24.8409808" id="Fill-1" fill="#FFFFFF" mask="url(#mask-2)"></path>
                </g>
                <g id="Group-6" transform="translate(53.805310, 0.000067)">
                    <mask id="mask-4" fill="white">
                        <use xlink:href="#path-3"></use>
                    </mask>
                    <g id="Clip-5"></g>
                    <path d="M21.8972814,21.8990962 L17.4112637,8.68255769 C17.3305558,8.44630769 16.9922549,8.44630769 16.9115469,8.68255769 L12.4255292,21.8990962 C12.3683611,22.0680385 12.4948035,22.2423654 12.6750513,22.2423654 L21.6477593,22.2423654 C21.8273345,22.2423654 21.9544496,22.0680385 21.8972814,21.8990962 M23.9977062,28.6897692 L10.2746619,28.6897692 C10.1609982,28.6897692 10.0607858,28.7617885 10.0244673,28.8681346 L8.0215646,34.8100577 C7.98591858,34.9157308 7.88570619,34.98775 7.77204248,34.98775 L0.802237168,34.98775 C0.621316814,34.98775 0.49420177,34.8107308 0.554060177,34.6417885 L12.753069,0.174192308 C12.7900602,0.0698653846 12.8896,-0.000134615385 13.001246,-0.000134615385 L21.2711221,-0.000134615385 C21.3827681,-0.000134615385 21.482308,0.0698653846 21.5192991,0.174192308 L33.7687504,34.6411154 C33.8286088,34.8107308 33.7014938,34.98775 33.5199009,34.98775 L26.5003257,34.98775 C26.3866619,34.98775 26.2864496,34.9157308 26.250131,34.8100577 L24.2472283,28.8681346 C24.2115823,28.7617885 24.1113699,28.6897692 23.9977062,28.6897692" id="Fill-4" fill="#FFFFFF" mask="url(#mask-4)"></path>
                </g>
                <path d="M118.581589,0.281817308 L118.581589,34.7063365 C118.581589,34.8611442 118.453802,34.9876827 118.297094,34.9876827 L113.422333,34.9876827 C113.329519,34.9876827 113.242758,34.9432596 113.189625,34.867875 L98.1106867,13.5952788 L98.1106867,34.7063365 C98.1106867,34.8611442 97.9828991,34.9876827 97.8255186,34.9876827 L91.4199965,34.9876827 C91.2626159,34.9876827 91.1348283,34.8611442 91.1348283,34.7063365 L91.1348283,0.281817308 C91.1348283,0.126336538 91.2626159,0.000471153846 91.4199965,0.000471153846 L96.294085,0.000471153846 C96.3868991,0.000471153846 96.4743327,0.0448942308 96.5274655,0.120278846 L111.606404,21.3430673 L111.606404,0.281817308 C111.606404,0.126336538 111.734191,0.000471153846 111.890899,0.000471153846 L118.297094,0.000471153846 C118.453802,0.000471153846 118.581589,0.126336538 118.581589,0.281817308" id="Fill-7" fill="#FFFFFF"></path>
                <g id="Group-11" transform="translate(122.407080, 0.000067)">
                    <mask id="mask-6" fill="white">
                        <use xlink:href="#path-5"></use>
                    </mask>
                    <g id="Clip-10"></g>
                    <path d="M21.6641027,34.8449904 L15.1307929,24.0131635 C15.0157841,23.8233558 14.7373416,23.8233558 14.6223327,24.0131635 L8.08835044,34.8449904 C8.03454513,34.9331635 7.93836814,34.9876827 7.83412035,34.9876827 L0.637660177,34.9876827 C0.408315044,34.9876827 0.265730973,34.7406635 0.383430088,34.5447981 L10.8438549,17.1935481 C10.8990053,17.1013365 10.8990053,16.9862404 10.8438549,16.8947019 L0.938969912,0.442682692 C0.821943363,0.247490385 0.963854867,-0.000201923077 1.1932,-0.000201923077 L8.38966018,-0.000201923077 C8.49390796,-0.000201923077 8.59075752,0.0549903846 8.64389027,0.143163462 L14.6223327,10.0744135 C14.7373416,10.2642212 15.0164566,10.2642212 15.1307929,10.0744135 L21.1078903,0.143163462 C21.1616956,0.0549903846 21.2578726,-0.000201923077 21.3621204,-0.000201923077 L28.557908,-0.000201923077 C28.7879257,-0.000201923077 28.9298372,0.247490385 28.8121381,0.443355769 L18.9092708,16.8435481 C18.8534478,16.9364327 18.8534478,17.0515288 18.9092708,17.1437404 L29.4187929,34.5447981 C29.536492,34.7399904 29.3945805,34.9876827 29.1645628,34.9876827 L21.9183327,34.9876827 C21.814085,34.9876827 21.7172354,34.9331635 21.6641027,34.8449904" id="Fill-9" fill="#FFFFFF" mask="url(#mask-6)"></path>
                </g>
                <path d="M8.5920354,28.3722788 C7.68138053,28.2551635 6.97518584,27.4932404 6.97518584,26.5617019 L6.97518584,20.8129519 C6.97518584,20.6642019 7.09759292,20.5430481 7.24824779,20.5430481 L20.0969558,20.5430481 C20.2482832,20.5430481 20.3706903,20.4218942 20.3706903,20.2731442 L20.3706903,14.3157404 C20.3706903,14.1656442 20.2482832,14.0451635 20.0969558,14.0451635 L7.24824779,14.0451635 C7.09759292,14.0451635 6.97518584,13.9246827 6.97518584,13.7752596 L6.97518584,6.86814423 C6.97518584,6.71872115 7.09759292,6.59824038 7.24824779,6.59824038 L21.3613805,6.59824038 C21.5120354,6.59824038 21.6344425,6.47708654 21.6344425,6.32766346 L21.6344425,0.270644231 C21.6344425,0.121221154 21.5120354,6.73076923e-05 21.3613805,6.73076923e-05 L0.273061947,6.73076923e-05 C0.12240708,6.73076923e-05 0,0.121221154 0,0.270644231 L0,21.347375 L0,28.4617981 C0,32.0728558 2.96063717,35.0000673 6.61267257,35.0000673 L21.8866549,35.0000673 L21.8866549,28.3722788 L8.5920354,28.3722788 Z" id="Fill-12" fill="#FFFFFF"></path>
            </g>
        </g>
    </g>
</svg>