<?xml version="1.0" encoding="UTF-8"?>
<svg width="100px" height="30px" viewBox="0 0 100 30" version="1.1" xmlns="http://www.w3.org/2000/svg" xmlns:xlink="http://www.w3.org/1999/xlink">
    <!-- Generator: Sketch 48.2 (47327) - http://www.bohemiancoding.com/sketch -->
    <title>Group 4</title>
    <desc>Created with Sketch.</desc>
    <defs></defs>
    <g id="Home" stroke="none" stroke-width="1" fill="none" fill-rule="evenodd" transform="translate(-672.000000, -150.000000)" opacity="0.149796196">
        <g id="Group-4" transform="translate(672.000000, 150.000000)" fill="#1DB954" fill-rule="nonzero">
            <path d="M35.1036329,20.4089342 C35.0395911,20.368465 35.0007639,20.3002646 35.0000111,20.2269213 C34.9992584,20.153578 35.0366782,20.0846636 35.099877,20.0430028 L36.5604948,18.3983048 C36.603325,18.3431157 36.6711616,18.3107692 36.7430818,18.3112418 C36.815002,18.3117145 36.8823662,18.3449496 36.9243973,18.4006965 C38.236032,19.4805528 39.4153765,20.1147541 41.2941483,20.1147541 C42.4956107,20.1147541 43.6970731,19.6762742 43.6970731,18.5250653 C43.7084026,18.1818053 43.5762692,17.8483473 43.3298321,17.5982784 C41.8166321,16.1329585 35.5768731,16.8903328 35.5768731,12.259587 C35.5768731,10.2326143 37.1209547,8.00035324 40.7837667,8.00035324 C42.6949584,7.98316392 44.5542949,8.59379191 46.050337,9.72995691 C46.1241195,9.76053999 46.1758101,9.82572397 46.1866469,9.9018493 C46.1974836,9.97797463 46.1658911,10.0539755 46.1033365,10.1022662 L44.815489,11.8350588 C44.6902932,11.9869322 44.6068293,11.9901212 44.3747998,11.8350588 C43.3323433,11.0303683 42.0421539,10.5748106 40.7023894,10.5383543 C39.3669675,10.5383543 38.5077069,11.1187422 38.5077069,12.0479208 C38.5077069,14.8159245 46.627907,13.0404797 46.627907,18.3137978 C46.627907,20.8677435 44.558003,22.6340201 41.2524163,22.6340201 C38.9849897,22.6456557 36.7938016,21.8527214 35.1036329,20.4089342 Z" id="path3017"></path>
            <path d="M54.3615056,11 C52.5850281,11 51.6681767,11.7537276 50.8695082,12.5580933 L50.8695082,11.4362661 C50.8818555,11.3771231 50.8624916,11.3160558 50.8177058,11.272898 C50.7729199,11.2297401 50.7084249,11.2099969 50.6451678,11.2200807 L48.2765312,11.2200807 C48.0335303,11.2200807 48.0036736,11.2773406 48.0036736,11.476387 L48.0036736,24.6777221 C47.9910094,24.7388716 48.0115291,24.8019346 48.0584235,24.8459844 C48.1053179,24.8900342 48.1724533,24.9093092 48.2375516,24.8974132 L50.5962359,24.8974132 C50.6725669,24.9131727 50.752187,24.8913306 50.8074915,24.8394596 C50.8627959,24.7875887 50.8861694,24.7128316 50.8695082,24.6411069 L50.8695082,20.5164444 C51.7270575,21.4862764 53.0084495,22.0360557 54.3503093,22.0098768 C56.9511652,22.0098768 59.627907,20.1943086 59.627907,16.5175979 C59.627907,12.6056152 56.7164578,11 54.3615056,11 Z M53.7896656,13.3920627 C55.2592819,13.3920627 56.7189459,14.4784433 56.7189459,16.535516 C56.7189459,18.3783509 55.4375931,19.6197617 53.7896656,19.6197617 C52.0194083,19.6197617 50.8106241,18.1442473 50.8106241,16.5172084 C50.8102094,14.9006866 51.941449,13.3920627 53.7896656,13.3920627 Z" id="path3019"></path>
            <path d="M70.6276354,16.4870322 L70.6276354,16.4483417 C70.6501922,14.2419403 69.2658749,12.2475624 67.1393824,11.4228361 C66.4076963,11.1368094 65.6243561,10.9932086 64.834651,11.0003361 C64.0370509,10.9919909 63.2459504,11.1391326 62.5090149,11.4328956 C61.8211082,11.708278 61.1949595,12.1089732 60.6649886,12.612955 C60.1438999,13.1114223 59.7286652,13.702787 59.4424719,14.3540263 C59.1453637,15.0289407 58.9948737,15.755222 59.0002593,16.4881929 L59.0002593,16.5268833 C58.9782207,18.7332505 60.3625619,20.7274329 62.4889144,21.5523889 C63.2207369,21.8384701 64.0041929,21.9821985 64.7940478,21.9752758 C65.5914244,21.9835972 66.3822836,21.8363179 67.1188798,21.5423294 C67.806701,21.2665786 68.432912,20.8659307 68.9633081,20.36227 C69.4842843,19.8637938 69.8993854,19.2724249 70.1854228,18.6211987 C70.4827164,17.9463393 70.6332142,17.2200207 70.6276354,16.4870322 Z M64.8282188,19.5931034 C62.8330361,19.5931034 61.7753441,17.8961392 61.7753441,16.459175 C61.7753441,14.6856037 63.0726349,13.3828955 64.7843995,13.3828955 C65.6275124,13.3959722 66.4290414,13.7376852 67.0056147,14.3298583 C67.582188,14.9220313 67.8844696,15.7139935 67.8433044,16.5245619 C67.8891455,17.3220477 67.5920127,18.1025521 67.0216903,18.6827665 C66.4513679,19.2629808 65.6581093,19.5917801 64.8282188,19.5919427 L64.8282188,19.5931034 Z" id="path3032"></path>
            <path d="M76.2695487,19.3975961 C76.7174525,19.3923978 77.1586814,19.2893148 77.5617681,19.0956986 C77.7793541,18.975898 77.9352908,19.0338016 77.9352908,19.2682115 L77.9352908,21.1450878 C77.9338032,21.2488139 77.8689105,21.3412535 77.7712954,21.378699 C77.0876002,21.7377381 76.3226702,21.9176734 75.5490972,21.901429 C73.3857279,21.901429 72.3284209,20.734571 72.3284209,18.7047492 L72.3284209,13.2985468 L71.1913324,13.2985468 C71.1389179,13.307328 71.0854602,13.2903863 71.0479118,13.2530942 C71.0103635,13.2158021 70.9933828,13.1627862 71.0023549,13.1108592 L71.0023549,11.0271271 C70.9967115,10.9859146 71.0107891,10.9444519 71.0404236,10.915004 C71.0700581,10.8855561 71.1118571,10.8714939 71.1534563,10.876977 L72.3280179,10.876977 L72.3280179,8.22978276 C72.3175148,8.16743336 72.3380501,8.10389591 72.3831512,8.05919802 C72.4282522,8.01450013 72.4923627,7.9941483 72.5552745,8.00455761 L74.8657159,8.00455761 C74.9396956,7.98950296 75.0163599,8.01226385 75.0698034,8.06514927 C75.1232469,8.1180347 75.1463295,8.19397902 75.1312514,8.26732029 L75.1312514,10.876977 L77.7716983,10.876977 C77.8311035,10.8726338 77.8891519,10.8960076 77.9286669,10.9401821 C77.9681819,10.9843566 77.9846384,11.0442731 77.9731668,11.1022022 L77.9731668,13.0733216 C77.98367,13.135671 77.9631346,13.1992085 77.9180336,13.2439064 C77.8729326,13.2886043 77.8088221,13.3089561 77.7459103,13.2985468 L75.1324602,13.2985468 L75.1324602,18.2171607 C75.1320573,18.8764635 75.3222436,19.3975961 76.2695487,19.3975961 Z" id="path3034"></path>
            <path d="M79.2538273,21.2401414 C79.1848022,21.2482715 79.1152768,21.2284776 79.0660006,21.1866673 C79.0167244,21.1448569 78.9933961,21.0858652 79.0029779,21.027298 L79.0029779,11.2153701 C78.9913843,11.1564484 79.0140516,11.0964039 79.0638349,11.0541633 C79.1136181,11.0119227 79.1843843,10.9926897 79.2538273,11.0025268 L81.8410454,11.0025268 C81.9112177,10.9929109 81.9825795,11.012337 82.0330612,11.054797 C82.0835428,11.0972571 82.107061,11.1576346 82.0963425,11.217257 L82.0963425,21.027298 C82.1108727,21.0866847 82.0891793,21.1482872 82.038633,21.1911753 C81.9880866,21.2340634 81.9154841,21.2524701 81.8454931,21.2401414 L79.2529378,21.2401414 L79.2538273,21.2401414 Z" id="path3036"></path>
            <path d="M82.8759682,7.82754908 C82.8766936,8.56756191 82.4049859,9.23508908 81.6808791,9.5187543 C80.9567723,9.80241953 80.1229289,9.64633544 79.5683055,9.12330938 C79.013682,8.60028332 78.8475498,7.81336125 79.1474032,7.12961267 C79.4472566,6.44586409 80.1540189,6.00000032 80.9380121,6 C82.0076158,5.99999957 82.8749785,6.81794787 82.8759682,7.82754908 Z" id="path3038"></path>
            <path d="M84.4857908,21.432724 C84.4349416,21.4392823 84.3838671,21.4223265 84.3476379,21.3868598 C84.3114087,21.3513931 84.2941603,21.3014639 84.3009822,21.2518049 L84.3009822,13.3260091 L83.1889783,13.3260091 L83.0037757,13.14509 L83.0037757,11.1761514 C82.9921637,11.1252435 83.0077228,11.0720539 83.0451164,11.0348256 C83.0825101,10.9975974 83.1366542,10.9813921 83.1889783,10.9917679 L84.3009822,10.9917679 L84.3009822,10.5029015 C84.3009822,8.57245632 85.0989298,7 87.6610309,7 C88.3065622,7.01537837 88.94834,7.10084592 89.5745288,7.25482646 C89.6792065,7.26729153 89.7552784,7.35806131 89.7471218,7.46076627 L89.7471218,9.37889353 C89.7471218,9.57482505 89.6036883,9.60985407 89.3530737,9.52170413 C88.9798834,9.39918674 88.5894221,9.33425137 88.1957542,9.32923701 C87.2457041,9.32923701 86.9694764,9.87776829 86.9694764,10.7184646 L86.9694764,10.9917679 L91.0045295,10.9917679 C91.1225584,10.9932122 91.2199723,11.0823628 91.229137,11.1973228 L93.9508276,18.1688666 L96.4254501,11.2419752 C96.4912561,11.0656753 96.5290847,11.0110147 96.6729123,11.0110147 L99.0825168,11.0110147 C99.3150052,11.0110147 99.313035,11.1688377 99.2212218,11.3851707 L95.1877448,21.6024799 C94.5872154,22.9497497 93.9981134,24.5606995 91.5967839,24.5606995 C90.7140727,24.5697004 89.8436108,24.3585093 89.0677828,23.9471143 C88.8912492,23.8701275 88.9704529,23.6965221 89.0677828,23.5202223 L89.7684005,22.0162842 C89.8472101,21.8415241 89.969365,21.8650051 90.1277724,21.9392974 C90.5024693,22.1368257 90.9183749,22.2482055 91.343805,22.2649518 C92.0444226,22.2649518 92.3387766,21.8295911 92.6134282,21.2710516 L89.2297366,13.3256242 L87.0069109,13.3256242 L87.0069109,21.2502651 C87.0141283,21.3001483 86.9968942,21.3504412 86.9603887,21.3860266 C86.9238832,21.421612 86.8723631,21.4383407 86.8213143,21.4311842 L84.487367,21.4311842 L84.4857908,21.432724 Z" id="path3040"></path>
            <path d="M15.8906564,0 C7.11414455,0.000425636897 -0.000300618236,6.71634286 0,15.0005138 C0.000300618236,23.2846847 7.11523319,30.0001419 15.891745,30 C24.6682568,29.9998581 31.7829457,23.2841709 31.7829457,15 C31.7829457,11.0216191 30.1085583,7.20619363 27.1281524,4.39312579 C24.1477466,1.58005796 20.1054785,-0.000204407382 15.8906564,0 Z M13.5587421,7.82870062 C18.2250201,7.82870062 23.1350222,8.73465037 26.7210752,10.7230386 C27.2574951,10.9822548 27.5793578,11.5176274 27.5400213,12.0852387 C27.5419082,12.4601812 27.3842441,12.8201425 27.102402,13.0843628 C26.8205599,13.348583 26.4381374,13.49494 26.0409336,13.4905976 C25.7500301,13.4897605 25.4656022,13.4094597 25.2219875,13.2593896 C22.3454701,11.6313004 17.8816833,10.7349843 13.5644576,10.7349843 C11.4240072,10.7125572 9.28965414,10.9546848 7.21578849,11.455197 C6.95199208,11.5420159 6.67767317,11.5971681 6.39929191,11.6193547 C5.99778384,11.6215018 5.61235784,11.470574 5.33037212,11.2007798 C5.04838639,10.9309855 4.89372011,10.5651715 4.90142894,10.1862508 C4.87099486,9.521431 5.33323591,8.92564708 6.01390553,8.75237631 C8.4693262,8.10649091 11.0100019,7.79544901 13.5587421,7.82870062 Z M13.2350013,12.9830961 C17.3950513,12.9830961 21.4191547,13.9611057 24.5843037,15.7479577 C25.059325,15.9669622 25.3463605,16.4358386 25.3101691,16.933669 C25.3121282,17.2447679 25.1824304,17.5437322 24.9498712,17.764186 C24.717312,17.9846398 24.4011371,18.108339 24.0715438,18.10782 C23.7848828,18.0967709 23.5080113,18.0063072 23.2754597,17.8477111 C20.6904315,16.3995787 17.1072363,15.4377537 13.1839702,15.4377537 C11.4327835,15.432511 9.68838685,15.6434133 7.99513447,16.0650979 C7.7475768,16.1565736 7.4869883,16.2128065 7.22191221,16.2319529 C6.53516013,16.2304648 5.97952611,15.7041034 5.98042917,15.0558753 C5.93495773,14.4646588 6.3556782,13.931394 6.96879827,13.8031136 C9.00465324,13.2457299 11.1152841,12.9695252 13.2350013,12.9830961 Z M13.4530058,17.8800802 C16.6960812,17.8195933 19.8942654,18.6025494 22.6973801,20.1432205 C23.1111994,20.3145582 23.3640886,20.7150277 23.3268989,21.140112 C23.3277664,21.38825 23.2240831,21.6265335 23.0386926,21.8024637 C22.853302,21.9783939 22.6014159,22.0775355 22.3385298,22.0780455 C22.0956334,22.0697112 21.8610928,21.9922001 21.6657367,21.8557006 C19.1674296,20.4969671 16.3253212,19.8036247 13.4423914,19.8495864 C11.757215,19.8619798 10.0777454,20.0361539 8.4299189,20.3694189 C8.17343069,20.4386887 7.91143705,20.4883027 7.64649043,20.5177773 C7.37988525,20.5213016 7.12299126,20.4234201 6.93368805,20.2461861 C6.74438483,20.0689521 6.63859674,19.8272746 6.6401584,19.575605 C6.59368067,19.0701566 6.97292441,18.6182164 7.50482828,18.5451883 C9.45460633,18.1123006 11.4500407,17.8891769 13.4530058,17.8800802 Z" id="path3101"></path>
        </g>
    </g>
</svg>