<?xml version="1.0" encoding="UTF-8"?>
<svg width="105px" height="17px" viewBox="0 0 105 17" version="1.1" xmlns="http://www.w3.org/2000/svg" xmlns:xlink="http://www.w3.org/1999/xlink">
    <!-- Generator: Sketch 48.2 (47327) - http://www.bohemiancoding.com/sketch -->
    <title>udacity-wordmark</title>
    <desc>Created with Sketch.</desc>
    <defs></defs>
    <g id="Home" stroke="none" stroke-width="1" fill="none" fill-rule="evenodd" transform="translate(-827.000000, -157.000000)" opacity="0.149796196">
        <g id="udacity-wordmark" transform="translate(827.000000, 157.000000)" fill-rule="nonzero">
            <path d="M34.1504958,9.36646007 C34.1504958,10.8198758 32.899159,11.8819876 31.1711224,11.8819876 C29.4430857,11.8819876 28.1917489,10.8198752 28.1917489,9.36646007 L28.1917489,4.00000171 L27,4.00000171 L27,9.42236072 C27,11.3229817 28.7280367,12.9440994 31.1711224,12.9440994 C33.6142086,12.9440994 35.3422453,11.267081 35.3422453,9.42236072 L35.3422453,4.00000171 L34.1504958,4.00000171 L34.1504958,9.36646007 Z M43.9228415,4.00000171 L40.7051172,4.00000171 L40.7051172,12.9440999 L43.9228415,12.9440999 C46.6042774,12.9440999 48.4514892,11.2111798 48.4514892,8.47205025 C48.4514892,5.78882135 46.604278,4.00000171 43.9228415,4.00000171 Z M43.803667,11.8260869 L41.8968673,11.8260869 L41.8968673,5.1180147 L43.8036658,5.1180147 C45.8296406,5.1180147 47.2597391,6.40372793 47.2597391,8.47205025 C47.2597391,10.7080751 45.7700533,11.7701863 43.8036658,11.8260869 L43.803667,11.8260869 Z M69.9029791,11.9937889 C67.7578303,11.9937889 66.3277312,10.4844725 66.3277312,8.47205025 C66.3277312,6.45962858 67.8174176,5.00621283 69.9029791,5.00621283 C71.5714285,5.00621283 72.5844156,5.90062322 72.5844156,5.90062322 L73.0611155,5.11801413 C73.0611155,5.11801413 71.9885405,4.05590179 69.7838039,4.05590179 C66.9236056,4.05590179 65.1359817,6.06832403 65.1359817,8.47205025 C65.1359817,10.9316771 66.9831929,13 69.9029791,13 C72.1673029,13 73.2994652,11.5465831 73.2994652,11.5465831 L72.6440029,10.8757765 C72.5844156,10.8198758 71.6906036,11.9937895 69.9029791,11.9937895 L69.9029791,11.9937889 Z M78.8411,4.00000171 L80.0328495,4.00000171 L80.0328495,12.9440999 L78.8411,12.9440999 L78.8411,4.00000171 Z M85.395722,5.1180147 L88.3750954,5.1180147 L88.3750954,12.9440999 L89.5668449,12.9440999 L89.5668449,5.1180147 L92.5462202,5.1180147 L92.5462202,4.00000171 L85.395722,4.00000171 L85.395722,5.1180147 Z M103.748663,4.00000171 L100.888465,8.0807457 L97.9686787,4 L96.7173414,4 L100.292589,8.97515552 L100.292589,12.9440988 L101.484339,12.9440988 L101.484339,8.97515609 L105,4 L103.748663,4.00000171 Z M56.1382734,4.00000399 L52.4438498,12.9441022 L53.6355993,12.9441022 L54.6485864,10.3726723 L58.5217706,9.59006324 L59.8326965,12.9441011 L61.0244436,12.9441022 L57.3896084,4.00000285 L56.138271,4.00000285 L56.1382734,4.00000399 Z M55.0061106,9.31056113 L56.7937351,5.17391649 L56.8533254,5.17391649 L58.3430094,8.69565284 L55.0061106,9.31056113 Z" id="wordmark" fill="#2E3D49"></path>
            <path d="M17.4,0.283333333 L18,0.566666667 L18,7.93333333 C18,11.0794026 16.26618,12.8608921 14.4028704,13.6566015 L14.40564,13.6566667 L9.8330622,16.1435185 C9.7978002,16.1631025 9.7624062,16.1823504 9.726888,16.2012629 L9.675036,16.2294625 L9.6761196,16.2280232 C8.689734,16.7426738 7.6108092,17 6.6,17 C3.6,17 0,14.7333333 0,10.2 L0,3.4 L1.2,3.96666667 L1.2,10.2 C1.2,14.7333333 4.8,15.8666667 6.6,15.8666667 C7.7152236,15.8666667 9.521406,15.4316197 10.734258,14.0224404 C8.5090356,13.5278271 6,11.7179317 6,7.93333333 L6,1.24666667 L1.2,3.96666667 L0,3.4 L6,0 L6.6,0.283333333 L7.2,0.566666667 L7.2,7.93333333 C7.2,11.8659762 9.9091698,12.8135154 11.4105252,12.9955752 C11.7754716,12.2522343 12,11.3321445 12,10.2 L12,2.83333333 L13.2,3.4 L13.2,10.2 C13.2,11.2498322 13.0069338,12.178103 12.672963,12.9848153 C14.1889338,12.7778896 16.8,11.7941149 16.8,7.93333333 L16.8,1.275 L13.2,3.4 L12,2.83333333 L16.8,0 L17.4,0.283333333 Z" id="mark" fill="#02B3E4"></path>
        </g>
    </g>
</svg>