<?xml version="1.0" encoding="UTF-8"?>
<svg width="73px" height="27px" viewBox="0 0 73 27" version="1.1" xmlns="http://www.w3.org/2000/svg" xmlns:xlink="http://www.w3.org/1999/xlink">
    <!-- Generator: Sketch 48.2 (47327) - http://www.bohemiancoding.com/sketch -->
    <title>Group 6</title>
    <desc>Created with Sketch.</desc>
    <defs></defs>
    <g id="Home" stroke="none" stroke-width="1" fill="none" fill-rule="evenodd" transform="translate(-527.000000, -152.000000)">
        <g id="Group-6" transform="translate(527.000000, 152.000000)" fill="#31B7EC" fill-rule="nonzero">
            <path d="M36.722464,5.89360681 C36.2208353,5.31303261 36.0150388,4.54258856 36.162483,3.79719572 C36.2823884,2.97918418 36.7073513,2.23297246 37.3561006,1.70126824 C37.979932,1.14873489 38.7931567,0.843667107 39.6359525,0.846019565 C40.408295,0.813649435 41.1530901,1.12895774 41.6561497,1.70126824 C42.1575247,2.28131231 42.3635661,3.05102784 42.2168748,3.79598672 C42.0970433,4.61421415 41.6719749,5.36062833 41.0230091,5.89239781 C40.3991122,6.4445147 39.5862116,6.74952722 38.7436532,6.74764648 C37.9711746,6.78061668 37.2259838,6.46574141 36.722464,5.89360681 Z" id="Shape"></path>
            <path d="M32.3492782,8.27588188 L30.2371326,8.27588188 C29.3254646,8.30309867 28.5589954,9.04576445 28.4090265,10.0472144 L27.5113646,17.301546 C27.4067657,18.1036078 27.0422568,18.8353819 26.486534,19.3589566 C25.9526847,19.9181039 25.2475247,20.2298143 24.514538,20.2306618 C23.8520678,20.2546263 23.2162329,19.9394704 22.788959,19.3753669 C22.3476319,18.8044833 22.1608608,18.0426155 22.280504,17.3013011 L22.8219613,12.8989324 C22.8361023,12.4808628 22.693777,12.0750049 22.4289381,11.778179 C22.1640992,11.4813531 21.8004947,11.3201754 21.424865,11.333096 L19.2759768,11.333096 C18.4348665,11.3599059 17.7084029,11.9958116 17.4865934,12.8994222 L16.9268748,17.301546 C16.8275072,18.1106715 16.4615423,18.8498004 15.900064,19.3753669 C15.3729543,19.9204918 14.6811818,20.2253887 13.9617303,20.2296821 C13.2931161,20.2502009 12.6528099,19.9290733 12.2236105,19.3579769 C11.7787753,18.7954288 11.5855123,18.0395754 11.6975542,17.3005663 L12.9008172,7.67482409 C13.0057807,6.71164381 12.5479875,5.78102495 11.7624587,5.36072708 C11.7624587,5.36072708 2.7015739,1.17708069 2.11105318,0.907657877 C1.51349198,0.638235067 0.836065265,1.24566104 0.60394926,2.25967053 L0.0503910898,4.68129173 C-0.164258281,5.73455471 0.322582926,6.80925063 1.21097112,7.24325773 L7.28338984,10.0281099 L6.3736271,17.3025258 C6.06809937,19.7423534 6.58476833,21.8281758 7.92363398,23.559993 C9.26249964,25.2918102 11.028048,26.1572289 13.2202792,26.1562492 C15.2509323,26.154533 17.215332,25.3517336 18.7646615,23.8904033 C20.0994202,25.4016204 21.7691887,26.1569023 23.7739669,26.1562492 C25.9663448,26.1562492 27.9483148,25.2908304 29.7198769,23.559993 C31.4914391,21.8291555 32.5299107,19.7433331 32.8352918,17.3025258 C32.8352918,17.3025258 33.7870774,9.62666988 33.8033585,9.49220341 C33.8867443,8.82256526 33.2328592,8.27588188 32.3492782,8.27588188 Z" id="Shape"></path>
            <path d="M37.9992792,8.4375 L36.2784129,8.4375 C35.5356385,8.46174134 34.9112375,9.12319382 34.789336,10.0149376 C34.789336,10.0149376 33.0561023,25.0005949 33.0479239,25.0738851 C32.9801025,25.6691858 33.5130983,26.15625 34.2326027,26.15625 L35.9530701,26.15625 C36.6958749,26.1321035 37.3203186,25.4706059 37.442147,24.5788124 C37.442147,24.5788124 39.1775749,9.56815874 39.1835591,9.52010757 C39.2519789,8.9245642 38.7187836,8.4375 37.9992792,8.4375 Z" id="Shape"></path>
            <path d="M71.6885238,10.3522843 C70.564065,8.94475279 69.0415436,8.24098705 67.1209595,8.24098705 C65.1998448,8.24098705 63.405607,8.68717905 61.6372902,10.3057757 C61.6372902,10.3057757 62.8878678,1.10748634 62.8896869,1.10094607 C62.968587,0.495849637 62.3487552,0 61.5120051,0 L59.5110808,0 C58.6472513,0.0241661848 57.9209617,0.697821338 57.7795993,1.60600053 C57.7795993,1.60600053 54.56516,25.0487637 54.5647052,25.0540928 C54.4855777,25.6596737 55.1051821,26.15625 55.9428418,26.15625 L57.943766,26.15625 C58.7899266,26.1315972 59.5063641,25.4838786 59.6668346,24.5984537 L59.6695631,24.5984537 L60.6768466,17.2857011 C60.8807286,15.8082452 61.4159001,14.6881627 62.2823609,13.9254538 C63.0680754,13.195252 64.0735296,12.7894166 65.1161698,12.7816326 C67.1839431,12.7816326 68.0176615,14.2359957 67.6173251,17.1447218 C67.6173251,17.1447218 66.5443295,25.0301118 66.5443295,25.0325341 C66.465202,25.638115 67.0852612,26.1342069 67.9226934,26.1342069 L69.9236177,26.1342069 C70.787447,26.1095498 71.5137467,25.436239 71.6560088,24.5282063 L72.8922616,15.9837021 C73.2146832,13.6374395 72.8134373,11.7603002 71.6885238,10.3522843 Z" id="Shape"></path>
            <path d="M53.3051253,13.420609 C53.5898058,13.4056765 53.8366334,13.229971 54.1051873,12.8514326 L55.0273192,11.5493204 C55.4175757,10.9636497 55.4265991,10.1661586 55.0497174,9.5697713 C54.884867,9.25569148 54.4044266,8.95057114 53.9660947,8.68850612 L53.9165948,8.65839229 C52.5299252,7.82665316 51.1672216,7.51356883 49.3603626,7.61087883 C47.3978365,7.71714831 45.7235746,8.35750282 44.3834931,9.51477 C43.0331085,10.6814944 42.2700034,12.1580678 42.1159041,13.9031769 C41.959117,15.6746668 42.5002564,16.9971868 43.7216277,17.8353966 C44.2209404,18.1938223 44.7483104,18.5015147 45.2973377,18.7547396 C45.9604288,19.0306318 46.63562,19.2691908 47.3203389,19.4695077 C48.0026512,19.6517536 48.6552967,19.9508263 49.2548673,20.3559992 C49.6477309,20.6546488 49.8231084,20.9742039 49.7910791,21.3338278 C49.7527608,21.719381 49.5544813,22.0628827 49.2550913,22.2623791 C48.8501652,22.5429886 48.3832608,22.6936401 47.9060506,22.6976609 C46.4359858,22.7870767 44.9754102,22.3863342 43.7117725,21.5468645 L42.7607469,20.9615113 C42.6031399,20.866199 42.4247523,20.8215579 42.2455894,20.8325942 C41.9515199,20.846001 41.677415,21.0015584 41.4952513,21.2584188 L40.1262762,23.2658418 C39.9897714,23.457549 39.9324369,23.7043746 39.9683906,23.945541 C40.0043443,24.1867075 40.1302454,24.3998064 40.3150926,24.532365 L40.3177804,24.5348537 C40.7522301,24.915081 41.2151724,25.2532917 41.7015383,25.5457826 C42.328258,25.9256443 42.989887,26.2296046 43.6750395,26.452433 C44.9099524,26.866995 46.198717,27.0483712 47.4876531,26.9890068 C49.2281613,26.937628 50.9067623,26.2606028 52.2716745,25.0594815 C53.5579674,23.9408955 54.3681143,22.2787155 54.508354,20.4704816 C54.6749963,18.5850071 54.1864926,17.2478035 53.0547139,16.4942111 C52.5703324,16.1658612 52.0606339,15.8860196 51.5316395,15.6579922 C51.1033868,15.4857709 50.3785826,15.2423715 49.3776092,14.9362557 C48.6518309,14.7392662 47.9450435,14.4642057 47.2672552,14.1149693 C46.9413462,13.9717734 46.743913,13.6017111 46.7872628,13.2152874 C46.8533374,12.4644325 47.5505919,12.0483141 48.858644,11.9776337 C49.9474411,11.9299244 51.0281293,12.204144 51.9903537,12.7722905 C52.2004484,12.9004609 52.4327172,13.0537677 52.6452757,13.2038391 L52.665882,13.2177761 C52.857254,13.351592 53.0790158,13.4219574 53.3051253,13.420609 Z" id="Shape"></path>
        </g>
    </g>
</svg>